<?xml version="1.0" encoding="utf-8"?>
<!-- Generator: Adobe Illustrator 23.0.3, SVG Export Plug-In . SVG Version: 6.00 Build 0)  -->
<svg version="1.1" id="Icons" xmlns="http://www.w3.org/2000/svg" xmlns:xlink="http://www.w3.org/1999/xlink" x="0px" y="0px"
	 viewBox="0 0 32 32" style="enable-background:new 0 0 32 32;" xml:space="preserve">
<style type="text/css">
	.st0{fill:none;stroke:#000000;stroke-width:2;stroke-linecap:round;stroke-linejoin:round;stroke-miterlimit:10;}
</style>
<path class="st0" d="M27.7,9.9C25.1,8.7,21.4,8,17.3,8C9.4,8,3,10.7,3,14c0,2.2,1.4,4.5,4.8,5.5c2.1,0.6,4.4,0.5,6.4-0.2l0,0
	c2.2-0.7,4.1-2,5.9-3.4c1.4-1.1,3.2-1.8,5.1-1.8h1.3C29.1,14,29.9,10.9,27.7,9.9z"/>
<ellipse class="st0" cx="11.5" cy="14" rx="3.5" ry="2"/>
<path class="st0" d="M29,12v5h0c-0.1,1-1,2-2.4,2h-1.3c-1.9,0-3.8,0.7-5.1,1.8c-1.8,1.5-3.7,2.7-5.9,3.4l0,0
	c-2.1,0.7-4.3,0.8-6.4,0.2C4.4,23.5,3,21.2,3,19v-5"/>
</svg>
